<svg id="Layer_1" data-name="Layer 1" xmlns="http://www.w3.org/2000/svg" viewBox="0 0 214.56 220.87"><defs><style>.cls-1{fill:#c9e8e6;}.cls-2{fill:#add4d4;}.cls-3{fill:#3a6e79;}.cls-4{fill:#4a8289;}.cls-5{fill:#4ea3a1;}.cls-6{fill:#e6f2e0;}.cls-7{fill:#91a8a5;}.cls-8{fill:#7a9896;}.cls-9{fill:#575a51;}.cls-10{fill:#676961;}</style></defs><title>logo_blog</title><path class="cls-1" d="M85.8,209.3v-5.8h56.49V186.64H85.8v-5.8h56.49V164H85.8v-5.79h56.49V141.31H85.8v-5.79h56.49V118.65H85.8v-5.8h56.49V71.76H96A26.74,26.74,0,0,0,69.35,98.42V237.66A26.74,26.74,0,0,0,96,264.32h46.27v-55Z" transform="translate(-69.35 -44.26)"/><path class="cls-2" d="M189,123.6a26.74,26.74,0,0,1-26.66-26.66V71.76H142.29v41.09h15.49v5.8H142.29v16.87h57.26v5.79H142.29v16.87h57.26V164H142.29v16.87h57.26v5.8H142.29V203.5h8v5.8h-8v55h47.93a26.74,26.74,0,0,0,26.66-26.66V123.6Z" transform="translate(-69.35 -44.26)"/><rect class="cls-3" x="72.94" y="68.59" width="15.49" height="5.8"/><rect class="cls-3" x="72.94" y="91.25" width="57.26" height="5.8"/><rect class="cls-3" x="72.94" y="113.92" width="57.26" height="5.8"/><rect class="cls-3" x="72.94" y="136.58" width="57.26" height="5.8"/><rect class="cls-4" x="16.45" y="68.59" width="56.49" height="5.8"/><rect class="cls-4" x="16.45" y="91.25" width="56.49" height="5.8"/><rect class="cls-4" x="16.45" y="113.92" width="56.49" height="5.8"/><rect class="cls-4" x="16.45" y="136.58" width="56.49" height="5.8"/><rect class="cls-4" x="16.45" y="159.24" width="56.49" height="5.8"/><rect class="cls-3" x="72.94" y="159.24" width="7.98" height="5.8"/><path class="cls-5" d="M162.37,71.76V96.94A26.74,26.74,0,0,0,189,123.6h27.85v-.19Z" transform="translate(-69.35 -44.26)"/><path class="cls-3" d="M181,203.05s3.52-43.62,23.06-78.5l-1.54,9.75,9.87-24.42S238,77.17,254.28,65l-1.76,8.52,5.87-14.27s15.61-12.71,25.36-15c0,0,1.22,15-3.09,23.3L270.8,73,280,71.46S269.84,113,260.28,120.3l-16.53,7.16,15.4-2.55s-16.87,35.7-31.77,48.93l-14.06,3,11.5.62S190.4,210.35,181,203.05Z" transform="translate(-69.35 -44.26)"/><path class="cls-6" d="M164.72,233l-.78,15.32S214,118,277.21,52.47C277.21,52.47,212.56,114.91,164.72,233Z" transform="translate(-69.35 -44.26)"/><path class="cls-7" d="M113.3,231.05h-6.09a3.94,3.94,0,0,0-3.93,3.93v1.32h10Z" transform="translate(-69.35 -44.26)"/><path class="cls-8" d="M124.25,236.3V235a3.94,3.94,0,0,0-3.93-3.93h-7v5.25Z" transform="translate(-69.35 -44.26)"/><path class="cls-9" d="M137.38,261.34l-5.8-21.25a5.44,5.44,0,0,0-5-3.79h-2.36v1.3a3.94,3.94,0,0,1-3.93,3.93h-7v23.6h21.18A2.86,2.86,0,0,0,137.38,261.34Z" transform="translate(-69.35 -44.26)"/><path class="cls-10" d="M103.28,236.3h-2.35a5.43,5.43,0,0,0-5,3.79l-5.8,21.25a2.85,2.85,0,0,0,2.89,3.79H113.3V236.3Z" transform="translate(-69.35 -44.26)"/><path class="cls-9" d="M113.3,241.53h7a3.94,3.94,0,0,0,3.93-3.93v-1.3h-11Z" transform="translate(-69.35 -44.26)"/></svg>